<svg xmlns="http://www.w3.org/2000/svg" viewBox="0 0 64 64" fill="none">
  <!-- Brass gold espresso machine group head icon -->
  <rect width="64" height="64" rx="12" fill="#0E0E0E"/>
  
  <!-- Portafilter handle -->
  <path d="M12 38 L12 42 C12 44 14 46 16 46 L22 46 C24 46 26 44 26 42 L26 38" 
        stroke="#CDAA5C" stroke-width="2" fill="none" stroke-linecap="round"/>
  
  <!-- Portafilter basket -->
  <ellipse cx="19" cy="38" rx="9" ry="3" fill="#CDAA5C"/>
  <path d="M10 38 L10 34 C10 32 12 30 14 30 L24 30 C26 30 28 32 28 34 L28 38" 
        stroke="#CDAA5C" stroke-width="2" fill="#3C2A21"/>
  
  <!-- Group head -->
  <rect x="14" y="18" width="36" height="14" rx="2" fill="#CDAA5C"/>
  <circle cx="32" cy="25" r="6" fill="#3C2A21"/>
  <circle cx="32" cy="25" r="3" fill="#B45F3D"/>
  
  <!-- Mounting screws -->
  <circle cx="20" cy="22" r="1.5" fill="#3C2A21"/>
  <circle cx="44" cy="22" r="1.5" fill="#3C2A21"/>
  
  <!-- Steam -->
  <path d="M32 50 Q34 54 32 58" stroke="#CDAA5C" stroke-width="1.5" fill="none" 
        stroke-linecap="round" opacity="0.6"/>
  <path d="M28 52 Q26 56 28 60" stroke="#CDAA5C" stroke-width="1.5" fill="none" 
        stroke-linecap="round" opacity="0.4"/>
  <path d="M36 52 Q38 56 36 60" stroke="#CDAA5C" stroke-width="1.5" fill="none" 
        stroke-linecap="round" opacity="0.4"/>
</svg>
